<?xml version="1.0" standalone="no"?>
<!DOCTYPE svg PUBLIC "-//W3C//DTD SVG 20010904//EN"
 "http://www.w3.org/TR/2001/REC-SVG-20010904/DTD/svg10.dtd">
<svg version="1.0" xmlns="http://www.w3.org/2000/svg"
 width="200pt" height="200" viewBox="0 0 1024.000000 1024.000000"
 preserveAspectRatio="xMidYMid meet">
<metadata>
Created by potrace 1.16, written by Peter Selinger 2001-2019
</metadata>
<g transform="translate(0.000000,1024.000000) scale(0.100000,-0.100000)"
fill="#8b8000" stroke="none">
<path fill="#8b8000" d="M5015 8630 c-663 -45 -1287 -367 -1689 -870 -160 -201 -314 -475
-382 -680 -30 -89 -40 -110 -53 -105 -35 14 -472 139 -568 163 l-103 26 -44
-22 c-36 -17 -47 -28 -55 -59 -8 -26 -11 -492 -11 -1451 0 -1533 -3 -1460 54
-1497 24 -16 67 -17 536 -10 l510 8 0 -215 c0 -242 -4 -283 -29 -272 -9 3 -74
27 -145 51 -157 55 -212 56 -318 6 -313 -147 -494 -507 -423 -844 l16 -73 -71
-70 -70 -71 -59 3 c-80 4 -129 -11 -178 -53 -50 -43 -78 -114 -67 -172 9 -48
197 -611 217 -649 20 -39 55 -70 99 -89 33 -13 258 -15 2071 -15 2001 0 2035
0 2112 20 77 20 150 55 191 92 21 18 22 18 80 -20 32 -22 86 -50 119 -63 l60
-24 575 -3 c406 -2 592 0 634 8 163 32 307 158 361 316 42 122 26 267 -42 396
-45 86 -98 146 -227 256 -159 135 -150 120 -130 194 24 86 24 280 0 368 -42
157 -145 311 -280 419 -109 86 -155 106 -246 106 -70 0 -84 -4 -203 -58 -70
-31 -130 -57 -132 -57 -3 0 -5 115 -5 256 l0 257 515 -8 515 -7 35 35 35 35 0
1441 c0 1597 5 1482 -66 1516 -37 17 -37 17 -213 -29 -239 -64 -331 -89 -431
-119 -47 -14 -87 -24 -89 -22 -2 2 -18 48 -37 101 -108 309 -288 594 -538 853
-159 163 -323 288 -532 404 -237 132 -517 229 -784 273 -75 12 -368 36 -395
32 -5 0 -59 -4 -120 -8z m350 -256 c65 -8 123 -18 128 -21 4 -2 32 -9 60 -13
82 -13 154 -34 267 -78 136 -52 392 -183 427 -218 17 -17 63 -38 76 -35 5 1 6
-3 2 -8 -3 -6 7 -18 22 -28 79 -49 204 -167 313 -294 30 -35 65 -74 78 -87 12
-13 22 -27 22 -31 0 -13 36 -41 44 -34 4 4 4 -1 0 -10 -4 -13 0 -23 15 -33 11
-8 21 -22 21 -30 0 -8 4 -14 9 -14 5 0 17 -17 26 -37 32 -67 53 -88 87 -84 20
2 28 -1 24 -8 -5 -8 -521 -11 -1804 -11 -988 0 -1792 4 -1787 8 12 8 26 32 55
88 11 23 32 54 45 68 14 15 25 32 25 37 0 6 14 24 30 42 17 18 28 38 25 46 -3
9 0 11 10 7 9 -3 15 0 15 8 0 7 22 36 49 64 27 29 52 61 56 72 3 11 11 20 16
20 5 0 34 24 62 53 69 68 147 134 211 177 28 19 59 42 70 52 10 9 35 25 55 34
20 9 38 20 41 24 10 15 179 99 280 139 58 23 120 49 138 57 18 8 39 14 47 14
8 0 15 3 15 8 0 4 15 8 33 8 17 1 50 7 72 13 69 21 296 49 400 50 56 1 154 -6
220 -15z m1813 -1307 c12 -31 24 -74 25 -95 l2 -37 -1450 0 c-797 0 -1589 2
-1760 6 -188 3 -312 2 -316 -4 -4 -5 -38 -6 -85 -1 l-79 8 125 17 c79 11 96
15 45 11 -93 -8 -222 -6 -244 4 -24 11 -75 11 -82 1 -4 -6 -41 -6 -94 0 -71 7
-88 7 -92 -5 -5 -11 -7 -11 -14 0 -7 11 -11 10 -18 -2 -18 -27 -21 -4 -7 51 8
30 19 66 25 82 l11 27 1992 -2 1993 -3 23 -58z m-4498 -202 c168 -45 356 -95
418 -110 l112 -29 0 -443 0 -443 -30 0 c-17 0 -38 4 -48 9 -9 6 -29 12 -44 16
-23 4 -28 11 -27 33 1 17 3 20 6 10 14 -54 18 12 19 290 0 244 -1 281 -8 178
-4 -71 -10 -131 -13 -134 -3 -3 -5 64 -5 149 0 106 3 149 10 139 9 -13 12 -12
26 5 14 19 13 21 -23 37 -21 10 -45 18 -54 18 -9 0 -42 9 -75 21 -94 32 -214
60 -226 53 -6 -4 -8 -3 -5 3 10 16 -59 26 -81 13 -15 -10 -14 -10 5 -5 12 3
24 2 27 -3 10 -16 -27 -19 -64 -6 l-35 13 33 7 c21 4 30 10 24 16 -6 6 -21 4
-40 -6 -36 -18 -42 -19 -42 -7 0 5 12 14 28 19 l27 11 -25 0 c-14 0 -34 1 -45
3 -20 3 -20 -3 -23 -454 -1 -252 -1 -458 1 -458 5 0 389 -79 572 -118 l130
-27 1 -665 c1 -366 -1 -654 -3 -641 l-5 24 -411 -4 -412 -4 -3 133 c-1 72 -6
132 -11 132 -5 0 -11 -58 -12 -130 -3 -86 -8 -133 -16 -142 -22 -21 -16 -56
10 -61 20 -4 19 -4 -4 -6 l-26 -1 -6 228 c-8 322 -9 2280 -1 2364 l7 69 31 -7
c17 -4 168 -44 336 -89z m5350 85 c0 -5 -9 -14 -20 -20 -28 -15 -39 -41 -29
-65 9 -19 9 -19 6 1 -4 18 19 44 38 44 10 0 4 -1426 -6 -1441 -5 -9 -9 28 -9
99 0 77 -4 112 -11 112 -8 0 -10 -18 -5 -61 3 -34 7 -107 8 -163 1 -72 3 -88
7 -56 l6 45 8 -64 c11 -102 9 -501 -4 -501 -7 0 -9 63 -6 198 3 121 2 151 -2
77 -4 -81 -8 -105 -11 -75 -3 25 -6 -44 -7 -154 -1 -138 -5 -201 -13 -206 -8
-5 -9 -33 -2 -106 l9 -99 2 103 c1 100 16 139 24 65 2 -21 2 -3 -1 40 -2 46 0
77 6 77 11 0 11 -484 0 -496 -5 -4 -9 17 -9 47 -1 30 -3 46 -6 36 -4 -17 -26
-17 -424 -11 -405 7 -420 7 -433 -12 -8 -10 -17 -16 -20 -13 -7 7 -13 1306 -5
1313 6 7 470 103 657 137 l62 12 -2 445 c-3 369 -5 446 -17 450 -8 3 -11 0 -8
-5 4 -6 -21 -18 -56 -27 -34 -10 -69 -21 -77 -25 -33 -17 -263 -72 -283 -68
-18 3 -16 5 6 6 16 0 26 5 23 10 -3 5 4 9 17 9 12 1 33 3 47 6 14 2 34 5 45 6
11 1 2 6 -20 10 -24 5 -42 4 -46 -2 -4 -6 -16 -7 -27 -4 -11 4 -23 2 -27 -4
-3 -5 -17 -10 -31 -10 -17 0 -23 -4 -18 -12 4 -6 3 -8 -4 -4 -6 3 -36 -2 -66
-11 -50 -16 -56 -21 -56 -46 0 -16 4 -26 9 -22 18 10 22 -79 19 -358 -2 -234
-5 -279 -18 -287 -21 -13 -119 -35 -126 -28 -8 9 -9 113 -6 523 l2 371 73 15
c39 9 214 53 387 99 409 107 412 108 433 109 9 1 17 -3 17 -9z m-2123 -200
l723 0 0 -961 0 -961 -22 5 c-13 3 -48 14 -78 25 -30 10 -96 29 -147 42 -86
21 -91 24 -95 51 -4 26 -2 29 24 29 36 0 75 20 108 55 l25 27 3 279 3 280 -30
29 -29 30 -164 1 c-90 1 -175 0 -190 -1 -16 -1 -28 0 -28 3 0 2 13 28 30 58
25 45 30 65 30 123 0 74 -14 133 -42 181 -9 17 -24 44 -32 61 -24 54 -195 223
-288 285 -109 72 -167 100 -288 136 -87 25 -109 28 -255 28 -204 0 -265 -14
-453 -109 -205 -102 -418 -335 -451 -494 -21 -102 -13 -159 32 -225 11 -16 16
-31 12 -35 -4 -4 -90 -9 -192 -12 l-185 -5 -29 -35 -29 -34 0 -241 c0 -142 5
-256 11 -279 15 -54 55 -91 107 -99 l42 -7 0 -73 0 -72 -67 -23 c-94 -32 -245
-93 -261 -105 -10 -8 -12 193 -12 1017 l0 1026 728 3 c400 1 736 1 747 0 11
-2 345 -3 742 -3z m1015 -55 l23 0 0 -1570 c0 -864 -2 -1615 -5 -1670 l-5
-100 -67 -3 -67 -3 -3 498 c-2 274 -2 1028 0 1676 l3 1177 39 0 c25 0 40 5 40
13 0 8 3 7 10 -3 5 -8 20 -15 32 -15z m-3521 -29 c6 -6 9 -5 9 3 0 7 5 9 10 6
6 -3 10 -2 10 4 0 18 40 33 71 26 l29 -7 0 -1674 0 -1675 -52 3 -53 3 -7 50
c-3 28 -7 101 -7 163 -1 67 -5 112 -11 112 -16 0 -13 -317 3 -323 9 -4 9 -6 0
-6 -6 -1 -14 3 -17 8 -5 7 -10 3076 -5 3276 1 44 3 71 6 60 3 -11 9 -24 14
-29z m4263 -259 c8 -45 5 -396 -5 -427 -4 -16 -8 10 -8 69 -1 52 -3 92 -5 90
-3 -2 -6 -46 -8 -97 l-3 -92 -30 -5 c-97 -15 -104 -14 -108 14 -4 23 -4 22 -6
-6 0 -18 -6 -33 -12 -33 -6 0 -10 12 -9 28 4 50 -3 58 -10 12 -4 -25 -8 63 -8
198 -1 156 2 242 8 242 6 0 11 -12 11 -27 l2 -28 4 27 c4 28 11 32 73 43 19 4
44 9 55 12 11 3 16 2 12 -3 -5 -5 -30 -14 -55 -21 -45 -12 -45 -12 -7 -7 22 3
51 8 65 10 20 5 22 3 10 -5 -13 -9 -13 -11 3 -11 20 0 24 36 5 43 -8 4 -7 6 3
6 11 1 19 -10 23 -32z m-4792 -38 c5 -13 8 -103 6 -200 -3 -162 -4 -175 -20
-171 -10 2 -18 -1 -18 -7 0 -7 -5 -9 -12 -5 -7 5 -8 3 -3 -6 5 -9 3 -11 -6 -6
-8 3 -21 9 -29 12 -19 7 -44 44 -30 44 5 0 10 5 10 10 0 6 -11 10 -25 10 -16
0 -25 6 -25 15 0 8 -4 15 -10 15 -5 0 -7 6 -4 14 3 8 1 17 -5 21 -7 4 -12 -16
-13 -62 l-1 -68 -8 85 c-10 123 -11 340 0 340 5 0 11 -4 13 -10 2 -5 17 -11
33 -13 17 -3 22 -2 13 0 -10 2 -18 9 -18 15 0 5 7 7 16 4 9 -3 28 -8 42 -11
21 -3 19 -2 -5 7 -57 19 -35 26 29 8 48 -13 63 -22 70 -41z m2416 15 c26 -7
24 -16 -14 -100 -13 -28 -32 -76 -44 -107 -19 -51 -24 -57 -51 -57 -25 0 -29
-4 -30 -27 -1 -21 -2 -23 -6 -8 -3 11 -9 25 -13 30 -5 6 -29 60 -54 120 -26
61 -51 118 -56 127 -7 12 -5 18 8 21 26 7 234 7 260 1z m-381 -171 c27 -60 58
-133 68 -163 10 -30 21 -59 26 -64 16 -18 9 -29 -8 -14 -37 32 -120 86 -181
116 -35 18 -75 41 -90 51 -15 10 -40 26 -55 35 l-29 17 37 32 c44 38 144 97
166 97 10 0 33 -37 66 -107z m652 68 c87 -52 126 -85 118 -99 -8 -12 -88 -57
-227 -128 -52 -26 -103 -57 -112 -69 -18 -20 106 300 124 323 16 18 26 15 97
-27z m-949 -271 c75 -37 178 -99 246 -147 l64 -45 -23 -18 c-35 -28 -206 -45
-305 -30 -107 17 -149 37 -163 78 -13 39 -7 75 20 138 31 68 64 73 161 24z
m1230 14 c42 -36 60 -75 60 -131 -1 -54 -10 -70 -60 -97 -27 -16 -60 -20 -166
-24 -116 -4 -139 -2 -198 18 -36 12 -68 25 -71 30 -8 13 121 94 264 167 68 35
127 63 131 63 5 0 22 -12 40 -26z m-594 -277 c26 -18 49 -38 51 -44 3 -9 -35
-13 -131 -15 -86 -2 -136 1 -136 7 0 17 14 32 54 59 55 37 101 35 162 -7z
m1033 -236 c11 -1 13 -30 9 -167 -4 -108 -9 -169 -17 -177 -16 -16 -869 -19
-879 -3 -4 6 -8 66 -10 134 l-4 122 -217 -2 -216 -3 -3 -125 c-2 -69 -6 -127
-8 -129 -2 -3 -204 -6 -448 -9 l-444 -4 -1 176 c-1 97 0 180 3 185 4 6 2149 8
2235 2z m-2078 -526 c10 -4 19 -15 19 -25 0 -10 6 -21 13 -24 10 -5 10 -7 0
-12 -7 -3 -13 -11 -13 -17 0 -8 4 -7 12 1 14 14 85 16 90 3 2 -5 134 -11 305
-13 l302 -4 4 30 c2 17 5 -327 5 -764 2 -789 2 -796 -18 -797 -16 -1 -20 4
-20 30 0 18 -4 28 -8 22 -4 -5 -11 -11 -17 -12 -60 -9 -75 -6 -75 17 0 20 -7
20 -274 20 -151 0 -281 -3 -290 -6 -11 -4 -16 -19 -16 -45 l0 -39 -65 0 -65 0
0 813 c0 448 2 816 5 818 7 8 85 10 106 4z m1228 -80 c2 16 4 17 9 5 6 -13 56
-15 362 -15 l355 0 3 -724 c1 -477 -1 -728 -8 -735 -5 -5 -10 -18 -10 -27 0
-10 -5 -21 -11 -24 -13 -9 -49 23 -49 42 0 13 -47 14 -315 12 -173 -2 -317 0
-321 3 -3 4 -9 78 -13 165 l-8 158 -3 -205 c-3 -166 -5 -188 -10 -115 l-6 90
-4 -90 -3 -90 -7 100 c-4 55 -8 400 -9 768 -1 590 0 668 14 673 8 4 16 20 16
38 2 29 2 28 9 -9 4 -22 8 -31 9 -20z m994 -526 c28 -17 56 -37 63 -44 7 -7
43 -35 79 -61 l65 -48 -1 -70 c-1 -39 -4 -82 -8 -94 -6 -24 -7 -24 -66 20 -33
24 -87 61 -120 82 -33 21 -63 43 -66 48 -9 14 -21 176 -14 188 9 14 13 13 68
-21z m-2457 -136 c-4 -58 -11 -67 -78 -106 -26 -15 -53 -33 -60 -40 -7 -6 -36
-30 -63 -52 -28 -22 -51 -43 -53 -47 -2 -5 -8 -8 -13 -8 -6 0 -8 46 -7 112 l3
113 75 57 c41 31 78 57 83 58 4 0 25 11 46 24 21 14 42 22 45 19 3 -4 7 0 7 8
1 8 5 -8 10 -36 5 -27 7 -73 5 -102z m-998 -699 c42 -14 111 -42 152 -62 l75
-37 3 -47 3 -48 -65 0 c-37 0 -66 4 -66 9 0 14 -69 2 -122 -21 -36 -15 -55
-32 -73 -63 -14 -23 -25 -49 -25 -58 0 -9 -5 -19 -12 -23 -7 -4 -8 -3 -4 4 4
7 4 12 0 12 -9 0 -74 -72 -74 -82 0 -5 -6 -8 -14 -8 -8 0 -17 -7 -20 -16 -3
-8 -10 -13 -16 -9 -6 4 -7 -5 -4 -25 4 -20 3 -30 -5 -30 -7 0 -9 5 -6 10 3 6
-1 17 -10 26 -9 9 -14 23 -11 30 3 8 2 14 -3 14 -5 0 -11 9 -14 20 -8 32 -21
24 -62 -37 -68 -101 -127 -166 -136 -151 -28 43 3 234 53 330 41 77 173 214
248 257 68 38 106 39 208 5z m4558 5 c56 -26 183 -150 226 -219 48 -77 69
-138 75 -223 7 -87 -4 -190 -18 -181 -6 3 -8 13 -5 21 3 8 1 11 -4 8 -16 -10
-12 11 5 25 18 15 20 31 3 28 -9 -2 -15 15 -19 47 l-6 50 -3 -65 c-2 -47 -4
-57 -9 -36 -3 16 -12 31 -19 32 -7 1 -8 0 -2 -3 5 -2 10 -12 10 -21 -1 -15
-24 6 -70 65 -12 15 -13 30 -2 36 4 2 1 2 -6 1 -7 -2 -18 8 -24 21 -14 32 -35
17 -44 -31 -3 -19 -9 -34 -12 -34 -7 0 -76 52 -84 64 -4 6 -9 36 -10 66 l-2
55 -3 -48 c-5 -56 -15 -50 -52 25 -34 71 -71 106 -120 114 -22 4 -41 10 -41
15 0 5 -12 4 -26 -1 -14 -6 -50 -10 -80 -10 l-54 0 0 43 0 43 133 61 c72 34
139 63 147 66 32 11 75 6 116 -14z m-533 -368 l268 -1 14 -32 c7 -18 11 -36 9
-40 -3 -5 -963 -8 -2135 -8 l-2129 0 0 23 c0 12 7 30 14 39 12 16 45 18 372
20 296 3 2559 2 3587 -1z m297 -231 c6 -11 10 -43 8 -71 l-3 -50 -2127 1
c-1716 0 -2128 -2 -2128 -12 0 -9 -3 -8 -10 2 -13 20 -13 106 0 131 11 19 45
19 2130 19 l2119 0 11 -20z m-5127 -504 c17 -19 76 -169 123 -316 8 -23 18 0
64 146 55 173 58 178 101 182 47 4 62 -14 93 -118 26 -87 67 -211 74 -220 7
-9 21 25 67 164 25 77 53 150 60 160 16 21 68 25 91 5 23 -19 17 -53 -35 -192
-27 -73 -66 -181 -87 -240 -40 -113 -62 -147 -94 -147 -35 0 -54 37 -109 205
l-54 166 -52 -161 c-57 -174 -75 -210 -105 -210 -20 0 -70 43 -70 61 0 5 -38
115 -85 245 -47 129 -85 243 -85 253 0 45 67 56 103 17z m897 -2 c10 -12 13
-74 11 -276 -1 -143 -5 -266 -8 -274 -8 -21 -51 -28 -79 -14 l-24 13 0 272 c0
197 3 274 12 283 17 17 73 15 88 -4z m252 -11 c14 -16 57 -69 94 -118 123
-162 149 -194 157 -194 4 -1 7 70 7 157 0 173 3 182 57 182 60 0 63 -15 62
-292 -1 -268 -5 -291 -53 -296 -37 -5 -48 7 -181 184 -63 84 -118 155 -124
159 -8 4 -11 -38 -11 -139 0 -154 -7 -187 -45 -204 -19 -9 -29 -7 -49 9 l-26
20 0 268 c0 194 3 270 12 279 22 22 72 14 100 -15z m799 0 c110 -49 189 -165
189 -278 0 -117 -69 -210 -190 -258 -61 -24 -258 -35 -282 -16 -15 13 -17 44
-19 287 -2 229 -1 275 12 283 8 6 64 8 129 6 89 -3 125 -8 161 -24z m640 3
c57 -24 126 -92 155 -154 92 -191 -49 -407 -265 -406 -113 1 -213 70 -259 181
-96 229 143 474 369 379z m293 3 c8 -12 39 -88 68 -170 29 -82 56 -149 59
-149 3 0 29 74 57 165 48 150 55 165 79 171 14 4 38 3 52 -2 22 -8 31 -24 59
-114 18 -58 37 -112 42 -121 5 -9 14 -35 20 -58 12 -46 25 -53 33 -18 11 46
99 293 109 305 23 27 108 7 108 -26 0 -18 -123 -374 -140 -403 -4 -9 -13 -34
-19 -56 -14 -50 -46 -93 -71 -93 -34 0 -55 37 -110 199 -30 89 -57 157 -61
153 -3 -4 -27 -72 -54 -152 -26 -80 -55 -157 -63 -172 -33 -57 -97 -18 -125
74 -17 58 -42 129 -111 317 -25 69 -46 128 -46 132 0 18 34 39 65 39 23 0 39
-7 49 -21z m1318 1 c51 -15 100 -57 96 -83 -2 -12 -17 -29 -35 -40 -28 -16
-35 -17 -60 -4 -78 40 -158 28 -219 -32 -43 -43 -54 -68 -54 -124 0 -72 61
-151 127 -163 35 -7 120 -1 129 9 3 3 8 24 11 47 l6 42 -39 -2 c-75 -5 -75 -5
-72 48 l3 47 111 3 c131 3 124 11 124 -130 0 -105 -13 -126 -104 -162 -195
-79 -420 63 -419 264 1 204 191 338 395 280z m594 -5 c53 -22 129 -100 155
-158 31 -70 32 -173 2 -238 -40 -83 -113 -139 -212 -160 -115 -24 -264 52
-312 161 -57 127 -16 274 98 359 79 59 182 73 269 36z m365 15 c18 -10 19 -23
19 -204 0 -106 3 -208 6 -225 l7 -31 116 0 c129 0 141 -5 141 -57 0 -58 -25
-65 -205 -61 -117 2 -158 6 -164 17 -9 14 -23 376 -19 477 2 34 9 68 17 78 15
18 53 21 82 6z m720 -17 c114 -51 182 -156 182 -278 -1 -85 -20 -132 -76 -188
-71 -72 -150 -97 -301 -97 -129 0 -121 -20 -121 300 0 229 2 272 15 281 9 6
64 9 135 6 94 -2 130 -8 166 -24z"/>
<path fill="#8b8000" d="M2506 5605 c-3 -9 -6 -234 -6 -499 l0 -483 178 -6 c97 -4 229 -10
292 -13 107 -7 114 -6 101 9 -12 15 -11 17 3 17 13 0 16 10 14 48 l-1 47 -6
-45 c-13 -90 -21 105 -18 434 3 285 5 320 20 331 9 7 17 17 17 24 0 6 6 11 13
11 8 0 7 4 -3 10 -8 5 -35 10 -60 11 -29 0 -39 3 -27 8 12 4 -28 15 -110 30
-70 13 -144 27 -164 32 -20 5 -44 6 -53 3 -9 -4 -18 0 -21 9 -4 9 -28 17 -70
21 -36 4 -71 9 -79 12 -7 3 -16 -2 -20 -11z m349 -295 c23 -7 16 -8 -30 -5
-32 3 -69 8 -82 11 -14 4 -23 2 -23 -5 0 -6 15 -11 33 -12 28 0 29 -2 12 -10
-15 -7 -10 -8 19 -3 43 6 55 -4 57 -46 1 -20 3 -18 8 9 3 19 12 36 19 39 9 3
12 -49 11 -246 l-1 -249 -60 -7 c-34 -3 -78 -6 -98 -6 l-37 0 -7 77 c-3 42 -6
169 -6 283 l0 206 78 -14 c42 -7 91 -17 107 -22z"/>
<path fill="#8b8000" d="M2720 4912 c0 -4 5 -13 12 -20 9 -9 9 -12 0 -12 -7 0 -12 -10 -13
-22 l0 -23 -9 23 c-14 34 -20 27 -20 -23 l0 -45 38 0 c20 0 61 3 90 6 46 6 52
10 52 30 0 40 -11 54 -42 54 -18 0 -27 4 -23 10 4 6 15 8 26 5 13 -5 19 -2 19
10 0 12 -6 15 -22 10 -13 -4 -28 -13 -34 -21 -16 -20 -31 -17 -37 6 -5 19 -37
29 -37 12z"/>
<path fill="#8b8000" d="M7992 6773 c-9 -75 -9 -128 -2 -173 5 -37 8 -217 6 -415 -2 -192 -1
-330 2 -305 6 42 7 40 13 -35 3 -44 4 -17 2 60 -3 77 -5 328 -4 558 1 229 0
417 -2 417 -2 0 -9 -48 -15 -107z"/>
<path fill="#8b8000" d="M7775 5610 c-16 -4 -25 -8 -20 -9 6 0 12 -11 12 -23 2 -18 0 -20 -8
-8 -8 13 -11 13 -19 -1 -6 -10 -30 -19 -57 -23 -27 -4 -56 -9 -65 -12 -10 -3
-18 -1 -18 5 0 6 10 11 23 12 18 1 17 2 -7 10 -17 4 -32 6 -35 4 -2 -3 2 -5
10 -5 11 0 11 -2 -1 -10 -21 -14 -53 -13 -44 1 5 8 -2 10 -22 7 -242 -41 -274
-50 -274 -75 0 -18 -10 -16 -26 5 -12 15 -13 15 -14 0 0 -9 12 -25 28 -36 l27
-20 0 -417 0 -417 80 6 c44 3 141 8 215 11 74 3 168 8 208 11 l72 6 0 494 c-1
548 5 502 -65 484z m-117 -277 c-10 -2 -18 -12 -17 -21 0 -11 2 -12 6 -4 2 6
9 12 14 12 10 0 12 -440 2 -502 -5 -35 -8 -38 -37 -37 -29 1 -30 1 -6 8 24 7
25 9 26 101 l1 95 -6 -90 c-4 -60 -10 -91 -18 -93 -9 -1 -13 11 -13 38 0 22
-5 40 -10 40 -7 0 -7 7 0 20 6 12 10 40 8 63 -3 35 -5 38 -13 22 -5 -11 -17
-29 -27 -39 -10 -11 -18 -23 -18 -28 0 -14 19 -8 29 9 5 10 12 15 16 11 9 -8
-43 -58 -60 -58 -11 0 -15 -13 -17 -42 l-1 -43 -7 50 -7 50 -1 -47 c-1 -27 -6
-48 -12 -48 -6 0 -11 77 -12 208 l-3 207 -2 -207 c-2 -133 -7 -208 -14 -208
-6 0 -9 87 -7 257 3 248 4 256 23 258 11 1 45 4 75 8 l55 6 -47 -11 c-27 -6
-48 -14 -48 -17 0 -3 22 -6 49 -6 27 0 49 2 49 5 -1 19 4 23 12 10 8 -12 10
-11 10 8 0 16 6 22 23 21 16 -1 18 -2 5 -6z"/>
<path fill="#8b8000" d="M3921 2160 l2 -170 51 0 c78 0 120 16 159 60 56 61 61 138 14 207
-32 47 -90 73 -166 73 l-62 0 2 -170z"/>
<path d="M4568 2308 c-56 -35 -81 -73 -85 -132 -6 -72 26 -133 87 -163 79 -40
154 -24 207 45 24 32 28 46 28 104 0 72 -14 102 -68 142 -41 30 -123 33 -169
4z"/>
<path fill="#8b8000" d="M6778 2309 c-56 -29 -88 -82 -88 -147 0 -61 17 -99 60 -135 61 -52
147 -47 211 10 84 76 72 211 -26 268 -51 30 -106 32 -157 4z"/>
<path fill="#8b8000" d="M7848 2334 c-5 -4 -8 -83 -8 -176 l0 -168 64 0 c73 0 110 11 144 43
83 77 68 222 -29 276 -39 22 -158 40 -171 25z"/>
</g>
</svg>
